<?xml version="1.0" encoding="UTF-8" standalone="no"?>
<!-- Created with Inkscape (http://www.inkscape.org/) -->

<svg
   xmlns:dc="http://purl.org/dc/elements/1.1/"
   xmlns:cc="http://creativecommons.org/ns#"
   xmlns:rdf="http://www.w3.org/1999/02/22-rdf-syntax-ns#"
   xmlns:svg="http://www.w3.org/2000/svg"
   xmlns="http://www.w3.org/2000/svg"
   version="1.1"
   width="300"
   height="291.66684"
   id="svg8601">
  <defs
     id="defs8603">
    <clipPath
       id="clipPath7797">
      <path
         d="m 409.875,577.034 -189.855,0 0,-41.654 189.855,0 0,41.654 z"
         id="path7799" />
    </clipPath>
  </defs>
  <metadata
     id="metadata8606">
    <rdf:RDF>
      <cc:Work
         rdf:about="">
        <dc:format>image/svg+xml</dc:format>
        <dc:type
           rdf:resource="http://purl.org/dc/dcmitype/StillImage" />
        <dc:title></dc:title>
      </cc:Work>
    </rdf:RDF>
  </metadata>
  <g
     transform="translate(-744.28572,-615.10022)"
     id="layer1">
    <g
       transform="matrix(5.6701396,0,0,5.6701396,438.29499,-1270.2815)"
       id="g8356">
      <path
         d="m 69.30029,358.55395 22.2225,0 0,-13.9775 -22.2225,0 0,13.9775 z"
         id="path7703"
         style="fill:#ffffff;fill-opacity:1;fill-rule:nonzero;stroke:none" />
      <g
         transform="matrix(1.25,0,0,-1.25,91.71029,344.38895)"
         id="g7705">
        <path
           d="m 0,0 -18.077,0 0,-11.482 18.077,0 L 0,0 Z m -0.298,-0.299 0,-10.884 -17.481,0 0,10.884 17.481,0"
           id="path7707"
           style="fill:#ffffff;fill-opacity:1;fill-rule:nonzero;stroke:none" />
      </g>
      <g
         transform="matrix(1.25,0,0,-1.25,59.57404,352.3927)"
         id="g7709">
        <path
           d="m 0,0 -1.388,-1.047 0.51,-1.665 -1.379,1.013 -1.394,-1.033 0.535,1.671 -1.371,1.024 1.71,0.021 0.547,1.668 0.52,-1.66 L 0,0"
           id="path7711"
           style="fill:#c41130;fill-opacity:1;fill-rule:nonzero;stroke:none" />
      </g>
      <g
         transform="matrix(1.25,0,0,-1.25,106.87404,352.3927)"
         id="g7713">
        <path
           d="m 0,0 -1.388,-1.047 0.51,-1.665 -1.379,1.013 -1.393,-1.033 0.534,1.671 -1.371,1.024 1.71,0.021 0.547,1.668 0.521,-1.66 L 0,0"
           id="path7715"
           style="fill:#c41130;fill-opacity:1;fill-rule:nonzero;stroke:none" />
      </g>
      <g
         transform="matrix(1.25,0,0,-1.25,58.21654,345.03145)"
         id="g7717">
        <path
           d="m 0,0 0.245,0.361 1.55,-1.058 c 0.438,-0.3 0.82,-0.132 1.123,0.313 C 3.22,0.063 3.235,0.481 2.798,0.78 L 1.247,1.839 1.492,2.199 2.999,1.17 C 3.646,0.728 3.731,0.142 3.229,-0.596 2.728,-1.335 2.155,-1.471 1.506,-1.029 L 0,0"
           id="path7719"
           style="fill:#002a54;fill-opacity:1;fill-rule:nonzero;stroke:none" />
      </g>
      <g
         transform="matrix(1.25,0,0,-1.25,62.16279,341.0302)"
         id="g7721">
        <path
           d="M 0,0 -0.006,-0.006 1.618,-1.684 1.306,-1.988 -0.736,0.122 -0.373,0.475 2.602,0.113 2.608,0.118 0.984,1.797 1.297,2.101 3.338,-0.009 2.976,-0.362 0,0"
           id="path7723"
           style="fill:#002a54;fill-opacity:1;fill-rule:nonzero;stroke:none" />
      </g>
      <g
         transform="matrix(1.25,0,0,-1.25,65.21654,337.3502)"
         id="g7725">
        <path
           d="M 0,0 0.353,0.255 2.062,-2.132 1.709,-2.387 0,0"
           id="path7727"
           style="fill:#002a54;fill-opacity:1;fill-rule:nonzero;stroke:none" />
      </g>
      <g
         transform="matrix(1.25,0,0,-1.25,68.17279,336.0077)"
         id="g7729">
        <path
           d="M 0,0 -0.975,-0.53 -1.155,-0.197 1.177,1.071 1.357,0.738 0.382,0.209 1.598,-2.043 1.216,-2.251 0,0"
           id="path7731"
           style="fill:#002a54;fill-opacity:1;fill-rule:nonzero;stroke:none" />
      </g>
      <g
         transform="matrix(1.25,0,0,-1.25,70.90654,334.1427)"
         id="g7733">
        <path
           d="M 0,0 2.234,0.75 2.354,0.391 0.533,-0.221 0.803,-1.029 2.57,-0.435 2.69,-0.794 0.922,-1.388 1.223,-2.29 3.084,-1.665 3.204,-2.024 0.931,-2.788 0,0"
           id="path7735"
           style="fill:#002a54;fill-opacity:1;fill-rule:nonzero;stroke:none" />
      </g>
      <g
         transform="matrix(1.25,0,0,-1.25,77.58904,335.7402)"
         id="g7737">
        <path
           d="M 0,0 C 0.708,0.096 0.754,0.709 0.684,1.228 0.614,1.742 0.376,2.254 -0.372,2.152 L -1.337,2.021 -1.046,-0.141 0,0 Z m -1.818,2.338 1.472,0.2 C 0.524,2.656 1,2.139 1.113,1.295 1.223,0.482 0.962,-0.251 0.071,-0.373 l -1.497,-0.202 -0.392,2.913"
           id="path7739"
           style="fill:#002a54;fill-opacity:1;fill-rule:nonzero;stroke:none" />
      </g>
      <g
         transform="matrix(1.25,0,0,-1.25,82.75404,334.9177)"
         id="g7741">
        <path
           d="m 0,0 c -0.068,-0.523 0.399,-0.73 0.838,-0.794 0.459,-0.067 0.809,0.059 0.856,0.377 0.039,0.265 -0.152,0.405 -0.477,0.511 L 0.575,0.302 C 0.239,0.41 -0.257,0.624 -0.173,1.191 -0.096,1.72 0.374,2.012 1.117,1.903 1.698,1.817 2.28,1.515 2.218,0.808 L 1.788,0.872 C 1.784,1.105 1.7,1.434 1.005,1.537 0.689,1.583 0.311,1.502 0.262,1.159 0.235,0.981 0.332,0.82 0.68,0.706 L 1.373,0.48 C 1.594,0.405 2.224,0.2 2.137,-0.394 2.028,-1.136 1.335,-1.25 0.75,-1.164 0.097,-1.067 -0.548,-0.74 -0.43,0.063 L 0,0"
           id="path7743"
           style="fill:#002a54;fill-opacity:1;fill-rule:nonzero;stroke:none" />
      </g>
      <g
         transform="matrix(1.25,0,0,-1.25,87.99029,333.99145)"
         id="g7745">
        <path
           d="M 0,0 -1.054,0.343 -0.937,0.704 1.585,-0.12 1.468,-0.481 0.414,-0.135 -0.377,-2.572 -0.791,-2.436 0,0"
           id="path7747"
           style="fill:#002a54;fill-opacity:1;fill-rule:nonzero;stroke:none" />
      </g>
      <g
         transform="matrix(1.25,0,0,-1.25,92.15904,335.77145)"
         id="g7749">
        <path
           d="M 0,0 -1.092,-0.893 -0.109,-1.413 0,0 Z m -0.144,-1.823 -1.27,0.673 -0.728,-0.582 -0.414,0.219 2.54,1.978 0.439,-0.233 -0.196,-3.22 -0.439,0.232 0.068,0.933"
           id="path7751"
           style="fill:#002a54;fill-opacity:1;fill-rule:nonzero;stroke:none" />
      </g>
      <g
         transform="matrix(1.25,0,0,-1.25,95.50904,337.8527)"
         id="g7753">
        <path
           d="m 0,0 -0.881,0.675 0.229,0.3 L 1.456,-0.639 1.227,-0.94 0.346,-0.265 -1.203,-2.302 -1.549,-2.037 0,0"
           id="path7755"
           style="fill:#002a54;fill-opacity:1;fill-rule:nonzero;stroke:none" />
      </g>
      <g
         transform="matrix(1.25,0,0,-1.25,98.32404,339.5877)"
         id="g7757">
        <path
           d="M 0,0 1.602,-1.735 1.325,-1.992 0.019,-0.578 -0.605,-1.158 0.663,-2.529 0.386,-2.786 -0.881,-1.415 -1.577,-2.062 -0.243,-3.506 -0.52,-3.763 -2.15,-2 0,0"
           id="path7759"
           style="fill:#002a54;fill-opacity:1;fill-rule:nonzero;stroke:none" />
      </g>
      <g
         transform="matrix(1.25,0,0,-1.25,99.37279,344.59145)"
         id="g7761">
        <path
           d="m 0,0 c -0.436,-0.293 -0.283,-0.783 -0.042,-1.155 0.252,-0.391 0.579,-0.571 0.848,-0.397 0.223,0.146 0.203,0.382 0.068,0.697 L 0.606,-0.234 C 0.465,0.09 0.299,0.606 0.778,0.917 1.226,1.208 1.756,1.046 2.164,0.414 2.483,-0.08 2.641,-0.72 2.07,-1.14 L 1.833,-0.773 C 2.007,-0.616 2.197,-0.335 1.815,0.256 1.642,0.526 1.332,0.756 1.042,0.569 0.89,0.47 0.834,0.291 0.979,-0.047 l 0.287,-0.672 c 0.09,-0.217 0.351,-0.827 -0.152,-1.152 -0.627,-0.408 -1.17,0.039 -1.491,0.537 -0.359,0.557 -0.539,1.259 0.141,1.701 L 0,0"
           id="path7763"
           style="fill:#002a54;fill-opacity:1;fill-rule:nonzero;stroke:none" />
      </g>
      <g
         transform="matrix(1.25,0,0,-1.25,58.36779,362.32895)"
         id="g7765">
        <path
           d="M 0,0 C -0.123,0.659 -0.599,1.106 -1.361,0.963 -2.124,0.82 -2.407,0.232 -2.284,-0.428 -2.161,-1.089 -1.685,-1.536 -0.923,-1.393 -0.16,-1.25 0.123,-0.661 0,0 Z m 0.371,0.069 c 0.217,-1.162 -0.475,-1.752 -1.214,-1.891 -0.738,-0.138 -1.596,0.163 -1.812,1.324 -0.217,1.161 0.475,1.753 1.214,1.891 0.738,0.139 1.596,-0.161 1.812,-1.324"
           id="path7767"
           style="fill:#002a54;fill-opacity:1;fill-rule:nonzero;stroke:none" />
      </g>
      <g
         transform="matrix(1.25,0,0,-1.25,59.38404,364.9452)"
         id="g7769">
        <path
           d="M 0,0 0.155,-0.406 -2.229,-1.322 -1.592,-2.991 -1.945,-3.127 -2.737,-1.049 0,0"
           id="path7771"
           style="fill:#002a54;fill-opacity:1;fill-rule:nonzero;stroke:none" />
      </g>
      <g
         transform="matrix(1.25,0,0,-1.25,61.45654,369.5327)"
         id="g7773">
        <path
           d="m 0,0 0.247,-0.471 -2.11,0.353 -1.087,-0.575 -0.203,0.387 1.069,0.565 0.927,1.946 L -0.899,1.712 -1.634,0.241 0,0"
           id="path7775"
           style="fill:#002a54;fill-opacity:1;fill-rule:nonzero;stroke:none" />
      </g>
      <g
         transform="matrix(1.25,0,0,-1.25,64.38779,373.42645)"
         id="g7777">
        <path
           d="m 0,0 0.386,-0.465 -2.254,-1.881 -0.278,0.336 1.868,1.559 -0.005,0.006 -2.598,-0.679 -0.247,0.298 1.104,2.405 -0.005,0.006 -1.832,-1.528 -0.278,0.337 2.254,1.879 0.391,-0.47 L -2.619,-0.653 0,0"
           id="path7779"
           style="fill:#002a54;fill-opacity:1;fill-rule:nonzero;stroke:none" />
      </g>
      <g
         transform="matrix(1.25,0,0,-1.25,65.92904,377.0852)"
         id="g7781">
        <path
           d="M 0,0 C 0.337,-0.269 0.595,-0.175 0.779,0.057 0.953,0.275 0.945,0.53 0.685,0.738 L -0.194,1.442 -0.818,0.655 0,0 Z M -0.299,2.009 0.882,1.065 C 1.386,0.661 1.465,0.22 1.125,-0.21 0.782,-0.641 0.291,-0.716 -0.191,-0.331 l -0.863,0.69 -0.732,-0.92 -0.34,0.273 1.827,2.297"
           id="path7783"
           style="fill:#002a54;fill-opacity:1;fill-rule:nonzero;stroke:none" />
      </g>
      <g
         transform="matrix(1.25,0,0,-1.25,68.71654,376.9227)"
         id="g7785">
        <path
           d="M 0,0 0.371,-0.228 -1.155,-2.736 -1.526,-2.511 0,0"
           id="path7787"
           style="fill:#002a54;fill-opacity:1;fill-rule:nonzero;stroke:none" />
      </g>
      <g
         transform="matrix(1.25,0,0,-1.25,72.27904,380.18895)"
         id="g7789">
        <path
           d="m 0,0 c 0.103,0.4 -0.053,0.845 -0.617,1.093 -0.636,0.278 -1.198,0.088 -1.519,-0.648 -0.221,-0.51 -0.175,-1.155 0.567,-1.479 0.47,-0.206 0.926,-0.135 1.267,0.34 l 0.399,-0.175 c -0.323,-0.569 -1.054,-0.845 -1.821,-0.51 -0.677,0.296 -1.249,0.991 -0.792,2.04 0.341,0.787 1.102,1.195 2.019,0.792 0.539,-0.235 1.18,-0.79 0.896,-1.628 L 0,0"
           id="path7791"
           style="fill:#002a54;fill-opacity:1;fill-rule:nonzero;stroke:none" />
      </g>
      <g
         transform="matrix(1.25,0,0,-1.25,-221.05971,1053.1752)"
         id="g7793">
        <g
           clip-path="url(#clipPath7797)"
           id="g7795">
          <g
             transform="translate(240.164,537.251)"
             id="g7801">
            <path
               d="m 0,0 c -0.021,0.412 -0.302,0.79 -0.914,0.857 -0.689,0.077 -1.17,-0.273 -1.257,-1.071 -0.06,-0.553 0.176,-1.155 0.98,-1.243 0.51,-0.055 0.924,0.147 1.109,0.702 L 0.35,-0.802 c -0.14,-0.64 -0.754,-1.122 -1.587,-1.032 -0.734,0.082 -1.486,0.575 -1.361,1.712 0.093,0.852 0.697,1.47 1.693,1.36 0.583,-0.065 1.36,-0.402 1.338,-1.287 L 0,0"
               id="path7803"
               style="fill:#002a54;fill-opacity:1;fill-rule:nonzero;stroke:none" />
          </g>
          <g
             transform="translate(242.921,538.089)"
             id="g7805">
            <path
               d="m 0,0 c -0.666,-0.065 -1.152,-0.5 -1.078,-1.275 0.074,-0.775 0.635,-1.11 1.3,-1.046 C 0.888,-2.256 1.374,-1.82 1.3,-1.045 1.226,-0.271 0.666,0.065 0,0 Z m -0.036,0.377 c 1.172,0.113 1.697,-0.63 1.769,-1.381 0.072,-0.75 -0.302,-1.579 -1.474,-1.693 -1.173,-0.114 -1.698,0.63 -1.77,1.381 -0.072,0.749 0.302,1.579 1.475,1.693"
               id="path7807"
               style="fill:#002a54;fill-opacity:1;fill-rule:nonzero;stroke:none" />
          </g>
        </g>
      </g>
      <g
         transform="matrix(1.25,0,0,-1.25,88.88779,378.65145)"
         id="g7809">
        <path
           d="M 0,0 0.571,0.194 1.512,-2.591 1.1,-2.73 0.32,-0.422 0.312,-0.424 0.011,-3.101 l -0.365,-0.124 -1.841,1.897 -0.008,-0.004 0.764,-2.261 -0.412,-0.14 -0.941,2.784 0.58,0.198 1.88,-1.936 L 0,0"
           id="path7811"
           style="fill:#002a54;fill-opacity:1;fill-rule:nonzero;stroke:none" />
      </g>
      <g
         transform="matrix(1.25,0,0,-1.25,93.59654,375.96395)"
         id="g7813">
        <path
           d="m 0,0 0.507,0.33 1.59,-2.472 -0.365,-0.237 -1.319,2.049 -0.007,-0.005 0.36,-2.67 -0.325,-0.21 -2.247,1.389 -0.007,-0.006 1.292,-2.007 -0.365,-0.237 -1.591,2.472 0.514,0.333 L 0.332,-2.687 0,0"
           id="path7815"
           style="fill:#002a54;fill-opacity:1;fill-rule:nonzero;stroke:none" />
      </g>
      <g
         transform="matrix(1.25,0,0,-1.25,95.06654,374.70395)"
         id="g7817">
        <path
           d="M 0,0 0.322,0.294 2.296,-1.879 1.975,-2.173 0,0"
           id="path7819"
           style="fill:#002a54;fill-opacity:1;fill-rule:nonzero;stroke:none" />
      </g>
      <g
         transform="matrix(1.25,0,0,-1.25,97.38779,373.02895)"
         id="g7821">
        <path
           d="M 0,0 -0.719,-0.845 -1.006,-0.598 0.715,1.424 1.002,1.179 0.282,0.334 2.225,-1.33 1.942,-1.661 0,0"
           id="path7823"
           style="fill:#002a54;fill-opacity:1;fill-rule:nonzero;stroke:none" />
      </g>
      <g
         transform="matrix(1.25,0,0,-1.25,99.75529,369.76395)"
         id="g7825">
        <path
           d="M 0,0 -0.558,-0.961 -0.885,-0.771 0.451,1.528 0.777,1.338 0.219,0.377 2.425,-0.912 2.206,-1.289 0,0"
           id="path7827"
           style="fill:#002a54;fill-opacity:1;fill-rule:nonzero;stroke:none" />
      </g>
      <g
         transform="matrix(1.25,0,0,-1.25,100.61529,367.17895)"
         id="g7829">
        <path
           d="M 0,0 0.818,2.216 1.173,2.085 0.505,0.279 1.302,-0.018 1.949,1.736 2.304,1.603 1.656,-0.149 2.545,-0.481 3.227,1.365 3.581,1.234 2.748,-1.022 0,0"
           id="path7831"
           style="fill:#002a54;fill-opacity:1;fill-rule:nonzero;stroke:none" />
      </g>
      <g
         transform="matrix(1.25,0,0,-1.25,101.88529,363.4527)"
         id="g7833">
        <path
           d="M 0,0 0.412,2.328 0.784,2.262 0.448,0.365 1.285,0.216 1.611,2.056 1.983,1.991 1.657,0.149 2.591,-0.018 2.933,1.92 3.305,1.856 2.886,-0.514 0,0"
           id="path7835"
           style="fill:#002a54;fill-opacity:1;fill-rule:nonzero;stroke:none" />
      </g>
      <path
         d="m 78.56029,345.80645 12.7775,0 0,-1.04446 -12.7775,0 0,1.04446 z"
         id="path7837"
         style="fill:#c41130;fill-opacity:1;fill-rule:nonzero;stroke:none" />
      <path
         d="m 78.56029,347.8977 12.7775,0 0,-1.04446 -12.7775,0 0,1.04446 z"
         id="path7839"
         style="fill:#c41130;fill-opacity:1;fill-rule:nonzero;stroke:none" />
      <path
         d="m 78.56029,349.9777 12.7775,0 0,-1.04461 -12.7775,0 0,1.04461 z"
         id="path7841"
         style="fill:#c41130;fill-opacity:1;fill-rule:nonzero;stroke:none" />
      <path
         d="m 78.56029,352.06895 12.7775,0 0,-1.04333 -12.7775,0 0,1.04333 z"
         id="path7843"
         style="fill:#c41130;fill-opacity:1;fill-rule:nonzero;stroke:none" />
      <path
         d="m 69.48654,354.1802 21.85125,0 0,-1.04446 -21.85125,0 0,1.04446 z"
         id="path7845"
         style="fill:#c41130;fill-opacity:1;fill-rule:nonzero;stroke:none" />
      <path
         d="m 69.48654,356.25895 21.85125,0 0,-1.04454 -21.85125,0 0,1.04454 z"
         id="path7847"
         style="fill:#c41130;fill-opacity:1;fill-rule:nonzero;stroke:none" />
      <path
         d="m 69.48654,358.3677 21.85125,0 0,-1.04461 -21.85125,0 0,1.04461 z"
         id="path7849"
         style="fill:#c41130;fill-opacity:1;fill-rule:nonzero;stroke:none" />
      <path
         d="m 69.48654,352.06895 9.0745,0 0,-7.3065 -9.0745,0 0,7.3065 z"
         id="path7851"
         style="fill:#002a54;fill-opacity:1;fill-rule:nonzero;stroke:none" />
      <g
         transform="matrix(1.25,0,0,-1.25,70.88779,346.09395)"
         id="g7853">
        <path
           d="M 0,0 0.296,0 0.059,-0.177 0.15,-0.461 -0.085,-0.286 -0.322,-0.461 -0.229,-0.177 -0.468,0 -0.176,0 -0.085,0.276 0,0"
           id="path7855"
           style="fill:#ffffff;fill-opacity:1;fill-rule:nonzero;stroke:none" />
      </g>
      <g
         transform="matrix(1.25,0,0,-1.25,70.89029,348.2977)"
         id="g7857">
        <path
           d="M 0,0 0.295,0 0.057,-0.178 0.149,-0.462 -0.088,-0.287 -0.324,-0.462 -0.23,-0.178 -0.47,0 -0.176,0 -0.088,0.277 0,0"
           id="path7859"
           style="fill:#ffffff;fill-opacity:1;fill-rule:nonzero;stroke:none" />
      </g>
      <g
         transform="matrix(1.25,0,0,-1.25,70.88779,350.50145)"
         id="g7861">
        <path
           d="M 0,0 0.296,0 0.059,-0.177 0.15,-0.461 -0.085,-0.287 -0.322,-0.461 -0.229,-0.177 -0.468,0 -0.176,0 -0.085,0.276 0,0"
           id="path7863"
           style="fill:#ffffff;fill-opacity:1;fill-rule:nonzero;stroke:none" />
      </g>
      <g
         transform="matrix(1.25,0,0,-1.25,74.15029,346.09395)"
         id="g7865">
        <path
           d="M 0,0 0.297,0 0.059,-0.177 0.151,-0.461 -0.085,-0.286 -0.322,-0.461 -0.228,-0.177 -0.467,0 -0.176,0 -0.085,0.276 0,0"
           id="path7867"
           style="fill:#ffffff;fill-opacity:1;fill-rule:nonzero;stroke:none" />
      </g>
      <g
         transform="matrix(1.25,0,0,-1.25,74.15279,348.2977)"
         id="g7869">
        <path
           d="M 0,0 0.295,0 0.057,-0.178 0.149,-0.462 -0.087,-0.287 -0.324,-0.462 -0.229,-0.178 -0.469,0 -0.175,0 -0.087,0.277 0,0"
           id="path7871"
           style="fill:#ffffff;fill-opacity:1;fill-rule:nonzero;stroke:none" />
      </g>
      <g
         transform="matrix(1.25,0,0,-1.25,74.15029,350.50145)"
         id="g7873">
        <path
           d="M 0,0 0.297,0 0.059,-0.177 0.151,-0.461 -0.085,-0.287 -0.322,-0.461 -0.228,-0.177 -0.467,0 -0.176,0 -0.085,0.276 0,0"
           id="path7875"
           style="fill:#ffffff;fill-opacity:1;fill-rule:nonzero;stroke:none" />
      </g>
      <g
         transform="matrix(1.25,0,0,-1.25,77.41904,346.09395)"
         id="g7877">
        <path
           d="M 0,0 0.294,0 0.057,-0.177 0.151,-0.461 -0.088,-0.286 -0.323,-0.461 -0.23,-0.177 -0.471,0 -0.176,0 -0.088,0.276 0,0"
           id="path7879"
           style="fill:#ffffff;fill-opacity:1;fill-rule:nonzero;stroke:none" />
      </g>
      <g
         transform="matrix(1.25,0,0,-1.25,77.41529,348.2977)"
         id="g7881">
        <path
           d="M 0,0 0.296,0 0.058,-0.178 0.153,-0.461 -0.086,-0.287 -0.321,-0.461 -0.227,-0.178 -0.468,0 -0.173,0 -0.086,0.277 0,0"
           id="path7883"
           style="fill:#ffffff;fill-opacity:1;fill-rule:nonzero;stroke:none" />
      </g>
      <g
         transform="matrix(1.25,0,0,-1.25,77.41904,350.50145)"
         id="g7885">
        <path
           d="M 0,0 0.294,0 0.057,-0.177 0.151,-0.462 -0.088,-0.287 -0.323,-0.462 -0.23,-0.177 -0.471,0 -0.176,0 -0.088,0.277 0,0"
           id="path7887"
           style="fill:#ffffff;fill-opacity:1;fill-rule:nonzero;stroke:none" />
      </g>
      <g
         transform="matrix(1.25,0,0,-1.25,72.52154,347.1977)"
         id="g7889">
        <path
           d="M 0,0 0.295,0 0.057,-0.179 0.149,-0.461 -0.088,-0.287 -0.324,-0.461 -0.23,-0.179 -0.47,0 -0.176,0 -0.088,0.277 0,0"
           id="path7891"
           style="fill:#ffffff;fill-opacity:1;fill-rule:nonzero;stroke:none" />
      </g>
      <g
         transform="matrix(1.25,0,0,-1.25,72.51904,349.40145)"
         id="g7893">
        <path
           d="M 0,0 0.297,0 0.059,-0.177 0.15,-0.46 -0.085,-0.286 -0.322,-0.46 -0.228,-0.177 -0.468,0 -0.176,0 -0.085,0.277 0,0"
           id="path7895"
           style="fill:#ffffff;fill-opacity:1;fill-rule:nonzero;stroke:none" />
      </g>
      <g
         transform="matrix(1.25,0,0,-1.25,75.78529,347.1977)"
         id="g7897">
        <path
           d="M 0,0 0.295,0 0.057,-0.179 0.149,-0.461 -0.087,-0.287 -0.324,-0.461 -0.23,-0.179 -0.47,0 -0.176,0 -0.087,0.277 0,0"
           id="path7899"
           style="fill:#ffffff;fill-opacity:1;fill-rule:nonzero;stroke:none" />
      </g>
      <g
         transform="matrix(1.25,0,0,-1.25,75.78279,349.40145)"
         id="g7901">
        <path
           d="M 0,0 0.297,0 0.06,-0.177 0.151,-0.46 -0.085,-0.286 -0.321,-0.46 -0.228,-0.177 -0.467,0 -0.175,0 -0.085,0.277 0,0"
           id="path7903"
           style="fill:#ffffff;fill-opacity:1;fill-rule:nonzero;stroke:none" />
      </g>
      <g
         transform="matrix(1.25,0,0,-1.25,70.66904,369.8377)"
         id="g7905">
        <path
           d="m 0,0 c -0.056,-0.002 -0.111,-0.006 -0.167,-0.006 -2.024,0 -3.663,1.648 -3.663,3.676 0,2.03 1.639,3.676 3.663,3.676 C 1.856,7.346 3.497,5.7 3.497,3.67 3.497,2.028 2.424,0.639 0.945,0.167 0.943,0.22 0.926,0.687 0.996,0.832 2.108,1.291 2.891,2.391 2.891,3.67 c 0,1.695 -1.368,3.07 -3.058,3.07 -1.69,0 -3.059,-1.375 -3.059,-3.07 0,-1.695 1.369,-3.068 3.059,-3.068 0.054,0 0.108,0 0.163,0.006 C -0.028,0.42 -0.035,0.122 0,0"
           id="path7907"
           style="fill:#002a54;fill-opacity:1;fill-rule:nonzero;stroke:none" />
      </g>
      <g
         transform="matrix(1.25,0,0,-1.25,81.78529,369.62895)"
         id="g7909">
        <path
           d="m 0,0 c 1.481,0.471 2.554,1.861 2.554,3.503 0,2.03 -1.641,3.676 -3.664,3.676 -1.873,0 -3.416,-1.408 -3.636,-3.227 0.125,0.006 0.541,-0.084 0.597,-0.102 0.173,1.532 1.467,2.723 3.039,2.723 1.689,0 3.059,-1.375 3.059,-3.07 C 1.949,2.218 1.161,1.12 0.045,0.663 0.021,0.512 -0.014,0.335 0,0"
           id="path7911"
           style="fill:#002a54;fill-opacity:1;fill-rule:nonzero;stroke:none" />
      </g>
      <g
         transform="matrix(1.25,0,0,-1.25,80.60654,369.8377)"
         id="g7913">
        <path
           d="m 0,0 c -0.055,-0.002 -0.111,-0.006 -0.167,-0.006 -1.848,0 -3.375,1.371 -3.627,3.158 0.11,-0.002 0.425,-0.061 0.643,-0.153 0.305,-1.371 1.526,-2.397 2.984,-2.397 0.054,0 0.111,0 0.163,0.006 C -0.009,0.496 -0.035,0.322 0,0"
           id="path7915"
           style="fill:#002a54;fill-opacity:1;fill-rule:nonzero;stroke:none" />
      </g>
      <g
         transform="matrix(1.25,0,0,-1.25,86.60404,366.0902)"
         id="g7917">
        <path
           d="m 0,0 c 0.306,-1.369 1.525,-2.395 2.985,-2.395 1.689,0 3.058,1.373 3.058,3.068 0,1.695 -1.369,3.07 -3.058,3.07 -1.574,0 -2.87,-1.193 -3.04,-2.725 -0.106,0.041 -0.464,0.102 -0.597,0.104 0.221,1.818 1.764,3.227 3.637,3.227 2.023,0 3.664,-1.646 3.664,-3.676 0,-2.028 -1.641,-3.676 -3.664,-3.676 -1.85,0 -3.377,1.375 -3.627,3.16 C -0.527,0.153 -0.216,0.09 0,0"
           id="path7919"
           style="fill:#002a54;fill-opacity:1;fill-rule:nonzero;stroke:none" />
      </g>
      <g
         transform="matrix(1.25,0,0,-1.25,79.96529,368.82395)"
         id="g7921">
        <path
           d="m 0,0 c -0.251,1.791 -1.78,3.164 -3.629,3.164 -0.055,0 -0.108,0 -0.161,-0.004 0.012,-0.135 0.018,-0.459 -0.006,-0.608 0.057,0 0.11,0.002 0.167,0.002 1.459,0 2.679,-1.022 2.984,-2.393 C -0.494,0.09 -0.118,0 0,0"
           id="path7923"
           style="fill:#002a54;fill-opacity:1;fill-rule:nonzero;stroke:none" />
      </g>
      <g
         transform="matrix(1.25,0,0,-1.25,79.97529,370.02395)"
         id="g7925">
        <path
           d="m 0,0 c -0.22,-1.82 -1.765,-3.227 -3.637,-3.227 -2.023,0 -3.664,1.646 -3.664,3.674 0,1.642 1.075,3.033 2.557,3.505 C -4.736,3.799 -4.747,3.539 -4.793,3.287 -5.91,2.83 -6.695,1.732 -6.695,0.447 c 0,-1.694 1.368,-3.07 3.058,-3.07 1.572,0 2.867,1.191 3.04,2.721 C -0.446,0.051 -0.136,0.004 0,0"
           id="path7927"
           style="fill:#002a54;fill-opacity:1;fill-rule:nonzero;stroke:none" />
      </g>
      <g
         transform="matrix(1.25,0,0,-1.25,89.91279,370.02395)"
         id="g7929">
        <path
           d="m 0,0 c -0.219,-1.82 -1.764,-3.227 -3.636,-3.227 -2.024,0 -3.663,1.646 -3.663,3.674 0,1.642 1.073,3.033 2.553,3.504 0.021,-0.167 -0.011,-0.562 -0.045,-0.664 -1.111,-0.459 -1.904,-1.561 -1.904,-2.84 0,-1.694 1.369,-3.07 3.059,-3.07 1.571,0 2.867,1.191 3.038,2.721 C -0.514,0.071 -0.201,0.008 0,0"
           id="path7931"
           style="fill:#002a54;fill-opacity:1;fill-rule:nonzero;stroke:none" />
      </g>
      <g
         transform="matrix(1.25,0,0,-1.25,85.16404,365.6352)"
         id="g7933">
        <path
           d="m 0,0 c 0.054,0.002 0.109,0.002 0.163,0.002 1.459,0 2.68,-1.024 2.984,-2.395 0.132,-0.055 0.451,-0.139 0.644,-0.159 -0.249,1.791 -1.779,3.164 -3.628,3.164 -0.055,0 -0.112,0 -0.165,-0.004 0.02,-0.151 0.02,-0.453 0,-0.608"
           id="path7935"
           style="fill:#002a54;fill-opacity:1;fill-rule:nonzero;stroke:none" />
      </g>
    </g>
  </g>
</svg>
